<svg width="48" height="48" viewBox="0 0 48 48" fill="none" xmlns="http://www.w3.org/2000/svg">
<rect x="0.166667" y="0.166667" width="47.6667" height="47.6667" rx="23.8333" fill="#FF6240" fill-opacity="0.22"/>
<g clip-path="url(#clip0)">
<path d="M34.8171 31.7623V33.7209C34.8171 35.716 29.9741 37.3333 23.9998 37.3333C18.0256 37.3333 13.1826 35.716 13.1826 33.7209V31.7623H34.8171Z" fill="#F6C358"/>
<path d="M34.8171 29.8492V31.8077C34.8171 33.8028 29.9741 35.4202 23.9998 35.4202C18.0256 35.4202 13.1826 33.8028 13.1826 31.8077V29.8492H34.8171Z" fill="#FCD462"/>
<path d="M34.8171 27.936V29.8945C34.8171 31.8896 29.9741 33.507 23.9998 33.507C18.0256 33.507 13.1826 31.8896 13.1826 29.8945V27.936H34.8171Z" fill="#F6C358"/>
<path d="M34.8171 26.0228V27.9814C34.8171 29.9765 29.9741 31.5939 23.9998 31.5939C18.0256 31.5939 13.1826 29.9765 13.1826 27.9814V26.0228H34.8171Z" fill="#FCD462"/>
<path d="M24 29.289C29.9742 29.289 34.8173 27.6716 34.8173 25.6765C34.8173 23.6813 29.9742 22.0639 24 22.0639C18.0257 22.0639 13.1826 23.6813 13.1826 25.6765C13.1826 27.6716 18.0257 29.289 24 29.289Z" fill="#F6C358"/>
<path d="M26.5496 26.3684C30.8855 26.3684 34.4004 22.8534 34.4004 18.5175C34.4004 14.1816 30.8855 10.6667 26.5496 10.6667C22.2137 10.6667 18.6987 14.1816 18.6987 18.5175C18.6987 22.8534 22.2137 26.3684 26.5496 26.3684Z" fill="#FCD462"/>
<path d="M26.5512 24.6757C23.1555 24.6757 20.3931 21.9132 20.3931 18.5176C20.3931 15.122 23.1556 12.3595 26.5512 12.3595C29.9468 12.3595 32.7092 15.122 32.7092 18.5176C32.7092 21.9132 29.9467 24.6757 26.5512 24.6757Z" fill="#DC8744"/>
<path d="M26.3026 23.2008V22.376C25.2705 22.2707 24.3441 21.8602 23.5229 21.1447L24.3478 20.1618C24.9808 20.7117 25.6323 21.039 26.3026 21.1447V18.9527C25.4511 18.7495 24.8282 18.4819 24.4328 18.1504C24.0375 17.8189 23.8393 17.3275 23.8393 16.676C23.8393 16.0246 24.0673 15.4917 24.5229 15.077C24.9785 14.6628 25.572 14.4371 26.3026 14.3994V13.8344H27.0258V14.4104C27.8542 14.4711 28.6376 14.7534 29.376 15.2582L28.6413 16.2977C28.1443 15.9437 27.6055 15.7253 27.0258 15.6421V17.7661H27.0598C27.9259 17.9697 28.5622 18.2447 28.9691 18.5909C29.376 18.9375 29.5792 19.4405 29.5792 20.0993C29.5792 20.7586 29.3456 21.2956 28.8785 21.7094C28.4114 22.124 27.794 22.3498 27.0257 22.3875V23.2008H26.3026ZM25.5059 15.9078C25.3141 16.077 25.2181 16.288 25.2181 16.5404C25.2181 16.7928 25.293 16.9924 25.4438 17.139C25.5946 17.2861 25.8806 17.4273 26.3026 17.563V15.6081C25.9638 15.6384 25.698 15.7382 25.5059 15.9078ZM27.8846 20.8621C28.0951 20.6892 28.2008 20.4708 28.2008 20.2069C28.2008 19.9435 28.1176 19.7343 27.9521 19.5798C27.7866 19.4253 27.4776 19.2805 27.0257 19.1449V21.1784C27.3871 21.1411 27.6736 21.0353 27.8846 20.8621Z" fill="#F6C358"/>
</g>
<rect x="0.166667" y="0.166667" width="47.6667" height="47.6667" rx="23.8333" stroke="#FF6240" stroke-width="0.333333"/>
<defs>
<clipPath id="clip0">
<rect width="26.6667" height="26.6667" fill="white" transform="translate(10.6665 10.6667)"/>
</clipPath>
</defs>
</svg>
