<svg xmlns="http://www.w3.org/2000/svg" xmlns:xlink="http://www.w3.org/1999/xlink" viewBox="0 0 151.73 44.17"><defs><style>.cls-1{fill:#fff;}.cls-2{fill:#f5f6f8;}.cls-3{fill:#001d3d;}.cls-4,.cls-8,.cls-9{opacity:0.4;}.cls-4{fill:url(#linear-gradient);}.cls-5{opacity:0.6;}.cls-6{fill:#001b3a;}.cls-7{fill:none;stroke:#001d3d;stroke-miterlimit:10;stroke-width:0.5px;}.cls-9{fill:url(#linear-gradient-2);}</style><linearGradient id="linear-gradient" x1="112.22" y1="48.99" x2="102.92" y2="-46.54" gradientUnits="userSpaceOnUse"><stop offset="0" stop-color="#fff"/><stop offset="1" stop-color="#001d3d"/></linearGradient><linearGradient id="linear-gradient-2" x1="42.54" y1="65.74" x2="27.98" y2="-1.79" xlink:href="#linear-gradient"/></defs><title>powered by RenVM light</title><g id="Layer_2" data-name="Layer 2"><g id="Layer_1-2" data-name="Layer 1"><rect class="cls-1" width="151.73" height="44.17" rx="5.04"/><rect class="cls-2" width="151.73" height="44.17" rx="5.04"/><polygon class="cls-3" points="16.32 11.74 18.86 10.29 19.2 10.88 28.57 5.47 27.89 5.08 27.2 4.67 26.86 4.48 11.59 13.3 11.59 13.69 15.98 11.16 16.32 11.74"/><polygon class="cls-3" points="16.32 17.29 23.66 13.05 24 13.65 33.37 8.25 32.69 7.84 32 7.45 31.66 7.25 11.59 18.84 11.59 19.23 15.98 16.7 16.32 17.29"/><polygon class="cls-3" points="16.32 20.07 26.06 14.44 26.4 15.04 35.77 9.63 35.09 9.24 34.4 8.84 34.06 8.64 11.59 21.61 11.59 22.01 15.98 19.47 16.32 20.07"/><polygon class="cls-3" points="16.32 22.84 28.53 15.79 28.88 16.38 38.17 11.02 37.49 10.61 36.8 10.22 36.46 10.02 11.59 24.38 11.59 24.78 15.98 22.25 16.32 22.84"/><polygon class="cls-3" points="16.32 25.61 30.93 17.17 31.28 17.77 40.58 12.4 39.89 12.01 39.2 11.61 38.86 11.41 11.59 27.15 11.59 27.55 15.98 25.02 16.32 25.61"/><polygon class="cls-3" points="41.6 13 41.26 12.79 11.59 29.93 11.59 30.32 15.98 27.79 16.32 28.38 30.93 19.95 31.28 20.54 42.12 14.29 42.12 13.49 42.12 13.3 41.6 13"/><polygon class="cls-3" points="13.47 32.01 15.93 30.59 16.27 31.18 30.86 22.76 31.21 23.36 42.12 17.05 42.12 16.26 42.12 15.47 42.12 15.07 13.14 31.81 13.47 32.01"/><polygon class="cls-3" points="30.86 25.54 31.21 26.13 42.12 19.83 42.12 19.04 42.12 18.24 42.12 17.85 15.54 33.19 15.88 33.39 18.38 31.95 18.72 32.54 30.86 25.54"/><polygon class="cls-3" points="18.28 34.78 20.78 33.33 21.12 33.93 30.86 28.3 31.21 28.9 42.12 22.6 42.12 21.8 42.12 21.02 42.12 20.62 17.93 34.58 18.28 34.78"/><polygon class="cls-3" points="20.68 36.17 23.18 34.73 23.52 35.32 30.86 31.08 31.21 31.67 42.12 25.37 42.12 24.58 42.12 23.79 42.12 23.39 20.34 35.97 20.68 36.17"/><polygon class="cls-3" points="22.74 37.35 23.08 37.55 25.59 36.11 25.92 36.7 30.86 33.85 31.21 34.45 42.12 28.14 42.12 27.35 42.12 26.56 42.12 26.16 22.74 37.35"/><polygon class="cls-3" points="25.48 38.94 27.98 37.49 28.32 38.09 30.86 36.62 31.21 37.21 42.12 30.92 42.12 30.13 42.12 29.33 42.12 28.94 25.14 38.74 25.48 38.94"/><polygon class="cls-3" points="30.97 6.86 30.29 6.46 30.29 6.46 29.6 6.07 29.26 5.87 11.59 16.06 11.59 16.46 15.98 13.93 16.32 14.52 21.26 11.67 21.61 12.27 30.97 6.86"/><path class="cls-4" d="M70,34.39l7.14,9.69h70a5.78,5.78,0,0,0,3.09-1.44,5.05,5.05,0,0,0,1.49-3.41V36l-14-16.78-5.42,7-6.15-7.16-1.88,2-1,1.77-2.85-3.75-4,7.16-6.61-7.16-.47,3.77.91,3.88,1.3,4.68-7-7.77-1.73-.44L97,27.14l-.38,3.26-5.37-7-1.64.08L84.4,25.4l-3.7-4.52-1.09,0-8.49-.72-.42,5Z"/><g class="cls-5"><path class="cls-6" d="M73.83,11.14c0,1.36-.94,1.66-2.28,1.66h-.94V15h-.77V9.49h1.71C72.89,9.49,73.83,9.79,73.83,11.14Zm-3.22,1h1c.8,0,1.42-.08,1.42-1s-.62-1-1.42-1h-1Z"/><path class="cls-6" d="M76,15.07a1.94,1.94,0,0,1-2-2.12A2,2,0,1,1,78,13,1.94,1.94,0,0,1,76,15.07ZM77.26,13c0-1.08-.6-1.51-1.22-1.51s-1.22.4-1.22,1.51.6,1.51,1.22,1.51S77.26,14,77.26,13Z"/><path class="cls-6" d="M81.31,10.9l.81,3,.77-3h.75L82.46,15h-.62l-.9-3.27L80.07,15h-.63L78.27,10.9H79l.78,3,.81-3Z"/><path class="cls-6" d="M85.9,14.46A1.1,1.1,0,0,0,87,13.79h.71a1.78,1.78,0,0,1-1.82,1.28,2,2,0,0,1-2-2.13,2,2,0,1,1,3.87.22H84.64A1.25,1.25,0,0,0,85.9,14.46Zm1.15-1.89a1.17,1.17,0,0,0-1.18-1.15,1.14,1.14,0,0,0-1.22,1.15Z"/><path class="cls-6" d="M90.21,11.59c-.63,0-.95.36-.95,1.25V15h-.69V10.9h.68v.71a1.21,1.21,0,0,1,1.14-.73h.21v.73Z"/><path class="cls-6" d="M92.9,14.46A1.1,1.1,0,0,0,94,13.79h.71a1.78,1.78,0,0,1-1.82,1.28,2,2,0,0,1-2-2.13,2,2,0,1,1,3.87.22H91.64A1.25,1.25,0,0,0,92.9,14.46Zm1.15-1.89a1.17,1.17,0,0,0-1.18-1.15,1.14,1.14,0,0,0-1.22,1.15Z"/><path class="cls-6" d="M99.09,9.49V15H98.4v-.61a1.43,1.43,0,0,1-1.33.71A1.88,1.88,0,0,1,95.33,13a1.88,1.88,0,0,1,1.74-2.12,1.43,1.43,0,0,1,1.33.71v-2Zm-3,3.46c0,1,.46,1.53,1.17,1.53S98.43,14,98.43,13s-.57-1.53-1.18-1.53S96.08,12,96.08,13Z"/><path class="cls-6" d="M102.66,11.54a1.43,1.43,0,0,1,1.33-.71A1.88,1.88,0,0,1,105.73,13,1.88,1.88,0,0,1,104,15.07a1.43,1.43,0,0,1-1.33-.71V15H102V9.49h.69ZM105,13c0-1-.46-1.53-1.16-1.53s-1.19.46-1.19,1.53.57,1.53,1.19,1.53S105,13.92,105,13Z"/><path class="cls-6" d="M108,15.14c-.3.89-.51,1.15-1.42,1.15h-.35v-.57h.28c.45,0,.67,0,.85-.67l0-.08-1.47-4.07h.77l1,3.14,1-3.14h.72Z"/></g><path class="cls-6" d="M75.08,28H72.45v6.44H70V19.1h4.85c4.12,0,6.6.87,6.6,4.42a3.83,3.83,0,0,1-3,4l3.52,6.86h-2.7L76.08,28C75.76,28,75.42,28,75.08,28Zm-2.63-2h2.76c2.26,0,3.8-.34,3.8-2.45s-1.67-2.47-3.84-2.47H72.45Z"/><path class="cls-6" d="M94,31.08a5,5,0,0,1-5.11,3.61c-3.68,0-5.66-2.68-5.66-6,0-3.53,2.36-5.87,5.59-5.87,3.51,0,5.56,2.87,5.33,6.57H85.46c.21,2.09,1.54,3.4,3.31,3.4a2.91,2.91,0,0,0,3-1.73Zm-2.13-3.4a3,3,0,0,0-3.07-3.05c-1.71,0-3,.89-3.27,3.05Z"/><path class="cls-6" d="M102,22.84c2.74,0,3.8,1.78,3.8,4.41v7.16h-2.2V27.85c0-1.65-.27-3.17-2.34-3.17-1.9,0-2.83,1.37-2.83,3.63v6.1h-2.2V23.05h2.2V24.7A3.82,3.82,0,0,1,102,22.84Z"/><path class="cls-6" d="M114,31.73l4-12.63h2.54l-5.22,15.31h-2.73L107.23,19.1h2.64Z"/><path class="cls-6" d="M124.64,21.53V34.41h-2.37V19.1h3.87L130,31.61l3.82-12.51h3.87V34.41h-2.36V21.53l-4.08,12.88h-2.49Z"/><line class="cls-7" x1="56.83" y1="13.17" x2="56.83" y2="30.68"/><g class="cls-8"><polygon class="cls-9" points="42.1 13.6 42.1 30.89 26.86 39.69 11.9 31.06 21.57 44.17 61.05 44.17 42.1 13.6"/></g></g></g></svg>